<svg width="268" height="80" viewBox="0 0 268 80" fill="none" xmlns="http://www.w3.org/2000/svg">
<rect x="94" width="80" height="80" rx="11.9826" fill="#FF5900"/>
<g clip-path="url(#clip0_424_286)">
<path d="M154.812 21.2077C155.244 22.1206 155.503 23.1516 155.503 24.2793V55.5971C155.503 56.7141 155.244 57.7451 154.812 58.658C158.148 59.2165 161.333 56.5745 161.333 52.9336V26.9321C161.333 23.2697 158.137 20.6492 154.812 21.2077Z" fill="white"/>
<path opacity="0.8" d="M154.813 21.2077C153.388 18.222 149.976 16.5358 146.651 17.6098C147.806 18.9415 148.53 20.7029 148.53 22.7005V57.1652C148.53 59.1521 147.806 60.9242 146.662 62.2559C149.998 63.3299 153.399 61.633 154.824 58.658C155.256 57.7451 155.515 56.7033 155.515 55.5971V24.2793C155.515 23.1624 155.256 22.1313 154.824 21.2077H154.813Z" fill="white"/>
<path opacity="0.4" d="M123.244 53.8786C120.513 52.9013 118.677 50.2485 118.677 47.2735V33.4297C118.677 30.5299 120.416 27.9416 123.05 26.8998L146.24 17.7493C146.381 17.6956 146.51 17.6634 146.65 17.6204C144.675 15.3328 141.436 14.3018 138.337 15.5261L112.804 25.6002C109.911 26.7387 108 29.5955 108 32.7853V48.0146C108 51.2903 110.019 54.2008 113.02 55.2856L138.543 64.4468C141.587 65.5423 144.718 64.5005 146.64 62.2773C146.564 62.2558 146.499 62.2451 146.424 62.2129L123.223 53.8894L123.244 53.8786Z" fill="white"/>
<path opacity="0.6" d="M148.529 56.4986L134.667 51.5159C132.41 50.6997 130.888 48.498 130.888 46.0385V34.5467C130.888 32.141 132.324 29.993 134.505 29.123L148.529 23.5597V22.7112C148.529 20.7136 147.805 18.963 146.65 17.6205C146.51 17.6634 146.38 17.6957 146.24 17.7494L123.039 26.9106C120.405 27.9524 118.667 30.5407 118.667 33.4405V47.2843C118.667 50.2593 120.502 52.9014 123.233 53.8894L146.434 62.2129C146.51 62.2344 146.575 62.2559 146.65 62.2774C147.805 60.9349 148.518 59.1735 148.518 57.1866L148.529 56.5395V56.4986Z" fill="white"/>
<path d="M130.887 34.5361V46.0279C130.887 48.4981 132.399 50.6998 134.666 51.5053L148.528 56.4994V23.5598L134.504 29.1231C132.323 29.9823 130.887 32.1411 130.887 34.5468V34.5361Z" fill="white"/>
</g>
<path d="M0.666667 40C0.666666 42.9455 3.05448 45.3333 6 45.3333C8.94552 45.3333 11.3333 42.9455 11.3333 40C11.3333 37.0545 8.94552 34.6667 6 34.6667C3.05448 34.6667 0.666667 37.0545 0.666667 40ZM6 41L96 41L96 39L6 39L6 41Z" fill="#FF5900"/>
<path d="M267.333 40C267.333 37.0545 264.946 34.6667 262 34.6667C259.054 34.6667 256.667 37.0545 256.667 40C256.667 42.9455 259.054 45.3333 262 45.3333C264.946 45.3333 267.333 42.9455 267.333 40ZM262 39L172 39L172 41L262 41L262 39Z" fill="#FF5900"/>
<defs>
<clipPath id="clip0_424_286">
<rect width="53.3333" height="49.8765" fill="white" transform="translate(108 15)"/>
</clipPath>
</defs>
</svg>
